<svg width="32" height="32" viewBox="0 0 32 32" fill="none" xmlns="http://www.w3.org/2000/svg">
<path d="M15.2849 32C14.1803 32 13.2848 31.1046 13.2848 30V2C13.2848 0.895431 14.1803 0 15.2848 0H16.7151C17.8197 0 18.7152 0.895431 18.7152 2V30C18.7152 31.1046 17.8197 32 16.7152 32H15.2849ZM2 18.7152C0.895431 18.7152 0 17.8197 0 16.7152V15.2849C0 14.1803 0.895431 13.2848 2 13.2848H30C31.1046 13.2848 32 14.1803 32 15.2848V16.7152C32 17.8197 31.1046 18.7152 30 18.7152H2Z" fill="#959595" fill-opacity="0.57"/>
</svg>
